# xmcd CD database file
#
# Track frame offsets:
#	187
#	37220
#	72930
#	112262
#	158532
#
# Disc length: 2768 seconds
#
# Revision: 0
# Processed by: cddbd v1.5.2PL0 Copyright (c) Steve Scherf et al.
# Submitted via: CDex 1.50
#
DISCID=420ace05
DTITLE=Dexter Gordon - At Montreux with Junior Mance
DYEAR=1987
DGENRE=Jazz
TTITLE0=Fried Bananas
TTITLE1=Sophisticated Lady
TTITLE2=Rhythm-A-Ning
TTITLE3=Body and Soul
TTITLE4=Blue Monk
EXTD=YEAR: 1987
EXTT0=
EXTT1=
EXTT2=
EXTT3=
EXTT4=
PLAYORDER=
